<?xml version="1.0" standalone="no"?>
<!DOCTYPE svg PUBLIC "-//W3C//DTD SVG 20010904//EN"
 "http://www.w3.org/TR/2001/REC-SVG-20010904/DTD/svg10.dtd">
<svg version="1.0" xmlns="http://www.w3.org/2000/svg"
 width="738.000000pt" height="393.000000pt" viewBox="0 0 738.000000 393.000000"
 preserveAspectRatio="xMidYMid meet">

<g transform="translate(0.000000,393.000000) scale(0.100000,-0.100000)"
fill="#000000" stroke="none">
<path d="M6090 3269 c-69 -16 -583 -130 -1143 -254 l-1018 -225 -269 0 c-173
0 -270 -4 -270 -10 0 -6 85 -10 235 -10 l235 0 2 -317 3 -318 1384 -5 1384 -5
33 -90 c18 -49 74 -205 124 -345 50 -140 131 -365 180 -500 174 -483 320 -890
320 -895 0 -3 -85 -5 -190 -5 l-190 0 0 180 0 180 -215 0 -215 0 0 190 0 190
-1280 0 -1280 0 0 -380 0 -380 1700 0 c935 0 1700 2 1700 4 0 2 -99 278 -219
612 -120 335 -263 731 -316 879 -573 1596 -548 1528 -560 1531 -5 1 -66 -11
-135 -27z m175 -126 c114 -311 355 -983 355 -990 0 -4 -224 -7 -497 -6 l-498
3 -3 494 c-2 478 -2 495 17 501 32 10 545 123 562 124 13 1 29 -32 64 -126z
m-664 -16 c-1 -4 -1 -226 -1 -494 l0 -488 -192 2 -193 2 0 452 0 452 185 42
c187 43 202 45 201 32z m-401 -532 l0 -445 -205 0 -205 0 0 404 0 403 183 41
c100 22 192 41 205 41 l22 1 0 -445z m-430 -45 l0 -400 -220 0 -220 0 0 353 0
354 88 18 c48 10 141 30 207 45 66 16 126 28 133 29 9 1 12 -85 12 -399z
m-460 -50 l0 -350 -215 0 -215 0 0 310 0 310 38 0 c20 0 114 18 207 39 94 22
173 40 178 40 4 1 7 -156 7 -349z m0 -1850 l0 -360 -190 0 -190 0 0 358 c0
197 2 361 4 363 2 2 88 3 190 1 l186 -3 0 -359z m460 0 l0 -360 -220 0 -220 0
0 363 0 362 220 -3 220 -3 0 -359z m430 -1 l0 -359 -205 0 -205 0 0 360 0 360
198 2 c108 2 200 2 205 0 4 -2 7 -165 7 -363z m418 1 l2 -360 -205 0 -205 0 0
358 c0 197 2 361 4 363 2 2 94 3 203 2 l198 -2 3 -361z m422 5 l0 -365 -200 0
-200 0 0 360 0 360 198 3 c108 1 198 3 200 5 1 1 2 -162 2 -363z m428 -5 l2
-360 -205 0 -205 0 0 358 c0 197 2 361 4 363 2 2 94 3 203 2 l198 -2 3 -361z
m422 -185 l0 -175 -205 0 -205 0 0 168 c0 93 3 172 7 175 3 4 96 7 205 7 l198
0 0 -175z"/>
<path d="M6645 580 c3 -5 8 -10 11 -10 2 0 4 5 4 10 0 6 -5 10 -11 10 -5 0 -7
-4 -4 -10z"/>
<path d="M6720 580 c0 -5 5 -10 10 -10 6 0 10 5 10 10 0 6 -4 10 -10 10 -5 0
-10 -4 -10 -10z"/>
<path d="M6620 541 c0 -11 5 -23 10 -26 6 -3 10 -19 10 -36 0 -19 5 -29 15
-29 10 0 15 11 15 35 0 23 4 34 13 33 17 -4 27 -19 27 -45 0 -14 6 -23 15 -23
8 0 15 8 15 17 0 9 7 24 16 34 23 25 10 59 -23 59 -14 0 -32 -8 -39 -17 -13
-17 -13 -17 -14 0 0 26 -60 24 -60 -2z"/>
<path d="M6620 406 c0 -24 19 -66 30 -66 5 0 10 8 10 18 1 16 1 16 11 0 15
-26 23 -22 38 18 15 40 8 57 -12 29 -13 -17 -14 -17 -21 1 -7 18 -8 17 -21 -6
-10 -18 -14 -20 -15 -8 0 21 -20 35 -20 14z"/>
<path d="M6745 404 c-9 -9 -15 -23 -13 -32 4 -19 35 -39 45 -28 4 4 0 12 -10
17 -21 12 -22 29 -2 29 8 0 15 7 15 15 0 20 -15 19 -35 -1z"/>
<path d="M3519 2599 c-30 -34 -56 -67 -58 -73 -2 -6 -2 -9 0 -6 2 3 33 36 69
73 35 37 59 67 53 67 -6 0 -35 -28 -64 -61z"/>
<path d="M3600 2615 c0 -9 -9 -19 -19 -22 -11 -3 -21 -13 -24 -24 -3 -10 -13
-19 -22 -19 -9 0 -13 -5 -10 -11 4 -6 -2 -13 -14 -16 -12 -3 -21 -13 -21 -24
0 -17 8 -19 80 -19 l81 0 -3 73 c-3 66 -5 72 -25 75 -16 2 -23 -2 -23 -13z"/>
<path d="M3474 2417 c-2 -7 -3 -60 -2 -118 l3 -104 78 -3 77 -3 0 121 0 120
-75 0 c-53 0 -77 -4 -81 -13z m144 -104 l3 -103 -66 0 -65 0 0 98 c0 54 2 101
4 103 2 2 31 4 63 4 l58 0 3 -102z"/>
<path d="M3540 2385 c0 -9 5 -15 11 -13 6 2 11 8 11 13 0 5 -5 11 -11 13 -6 2
-11 -4 -11 -13z"/>
<path d="M3524 2323 c2 -21 4 -50 5 -65 2 -39 21 -35 22 5 2 31 2 31 9 -8 7
-37 7 -35 10 25 2 54 4 60 10 35 l8 -30 -1 35 c-2 32 -5 35 -34 38 -32 3 -32
3 -29 -35z"/>
<path d="M3666 2411 c-11 -12 -14 -21 -7 -26 6 -3 11 -17 11 -31 0 -40 27 -29
33 14 6 49 -12 71 -37 43z"/>
<path d="M3670 2261 c0 -16 -5 -31 -11 -33 -6 -2 -2 -11 9 -21 18 -16 20 -16
37 3 10 11 13 20 7 20 -7 0 -12 14 -12 30 0 20 -5 30 -15 30 -10 0 -15 -10
-15 -29z"/>
<path d="M3865 1877 c-3 -7 -4 -140 -3 -297 l3 -285 1098 -3 1097 -2 -2 297
-3 298 -1093 3 c-875 2 -1094 0 -1097 -11z m445 -287 l0 -280 -215 0 -215 0 0
280 0 280 215 0 215 0 0 -280z m460 0 l0 -280 -220 0 -220 0 0 280 0 280 220
0 220 0 0 -280z m430 0 l0 -280 -205 0 -205 0 0 280 0 280 205 0 205 0 0 -280z
m420 0 l0 -280 -205 0 -205 0 0 280 0 280 205 0 205 0 0 -280z m420 0 l0 -280
-200 0 -200 0 0 280 0 280 200 0 200 0 0 -280z"/>
<path d="M6392 1683 l3 -118 115 0 115 0 3 118 3 117 -121 0 -121 0 3 -117z
m220 2 l1 -100 -102 -3 -101 -3 0 106 0 106 101 -3 100 -3 1 -100z"/>
<path d="M6545 1750 c5 -14 2 -20 -9 -20 -18 0 -23 -64 -6 -75 6 -3 10 -17 10
-31 0 -15 6 -24 15 -24 10 0 15 10 15 30 0 17 5 30 10 30 16 0 12 60 -5 66
-10 4 -13 13 -10 25 5 13 1 19 -10 19 -12 0 -15 -6 -10 -20z m32 -72 c-3 -7
-5 -2 -5 12 0 14 2 19 5 13 2 -7 2 -19 0 -25z"/>
<path d="M6430 1740 c0 -5 16 -10 35 -10 19 0 35 5 35 10 0 6 -16 10 -35 10
-19 0 -35 -4 -35 -10z"/>
<path d="M6437 1694 c-15 -16 -5 -24 29 -24 24 0 34 4 32 13 -5 13 -50 22 -61
11z"/>
<path d="M6433 1618 c2 -7 16 -13 32 -13 16 0 30 6 33 13 2 8 -8 12 -33 12
-25 0 -35 -4 -32 -12z"/>
<path d="M6666 1781 c-11 -12 -14 -21 -7 -26 6 -3 11 -17 11 -31 0 -40 27 -29
33 14 6 49 -12 71 -37 43z"/>
<path d="M6670 1637 c0 -13 -5 -28 -10 -33 -7 -7 -4 -16 8 -27 27 -24 43 -3
35 46 -6 41 -33 52 -33 14z"/>
<path d="M6637 1441 c-44 -46 -57 -66 -56 -88 2 -27 2 -27 6 -3 3 14 32 53 66
88 34 34 57 62 51 62 -6 0 -36 -27 -67 -59z"/>
<path d="M6720 1455 c0 -8 -6 -15 -14 -15 -7 0 -16 -9 -19 -20 -3 -11 -12 -20
-21 -20 -9 0 -16 -8 -16 -20 0 -13 -7 -20 -20 -20 -11 0 -20 -7 -20 -15 0 -12
16 -15 80 -15 l80 0 0 70 c0 68 -1 70 -25 70 -16 0 -25 -6 -25 -15z"/>
</g>
</svg>
