{"accessors" : [{"bufferView" : 0, "byteOffset" : 0, "componentType" : 5123, "count" : 11382, "type" : "SCALAR", "max" : [11226], "min" : [0]}, {"bufferView" : 1, "byteOffset" : 0, "componentType" : 5126, "count" : 11227, "type" : "VEC3", "max" : [12.590455055236816, 11.835820198059082, 0.6534339189529419], "min" : [-11.999703407287598, -11.834742546081543, -11.332194328308105], "name" : "POSITION"}, {"bufferView" : 1, "byteOffset" : 12, "componentType" : 5126, "count" : 11227, "type" : "VEC3", "max" : [1.0000044107437134, 1.0000044107437134, 1.0000044107437134], "min" : [-1.0000044107437134, -1.0000044107437134, -1.0000044107437134], "name" : "NORMAL"}, {"bufferView" : 1, "byteOffset" : 24, "componentType" : 5126, "count" : 11227, "type" : "VEC2", "max" : [1, 1], "min" : [0, 0], "name" : "TEXCOORD_0"}, {"bufferView" : 0, "byteOffset" : 22764, "componentType" : 5123, "count" : 1920, "type" : "SCALAR", "max" : [1639], "min" : [0]}, {"bufferView" : 2, "byteOffset" : 0, "componentType" : 5126, "count" : 1640, "type" : "VEC3", "max" : [156.63702392578125, 40.36582565307617, -0], "min" : [77.79731750488281, -40.36582565307617, -40.370079040527344], "name" : "POSITION"}, {"bufferView" : 2, "byteOffset" : 12, "componentType" : 5126, "count" : 1640, "type" : "VEC3", "max" : [0.9989793300628662, 0.993583619594574, 0.997401773929596], "min" : [-0.9989448189735413, -0.993583619594574, -0.9941769242286682], "name" : "NORMAL"}, {"bufferView" : 2, "byteOffset" : 24, "componentType" : 5126, "count" : 1640, "type" : "VEC2", "max" : [0.9812809824943542, 0.5], "min" : [-0.10000000149011612, 0], "name" : "TEXCOORD_0"}, {"bufferView" : 0, "byteOffset" : 26604, "componentType" : 5123, "count" : 2040, "type" : "SCALAR", "max" : [1699], "min" : [0]}, {"bufferView" : 3, "byteOffset" : 0, "componentType" : 5126, "count" : 1700, "type" : "VEC3", "max" : [155.7935791015625, 39.81668472290039, -0], "min" : [76.89389038085938, -39.81668472290039, -39.14060974121094], "name" : "POSITION"}, {"bufferView" : 3, "byteOffset" : 12, "componentType" : 5126, "count" : 1700, "type" : "VEC3", "max" : [0.9863036870956421, 0.992457389831543, 0.996809184551239], "min" : [-0.9863258004188538, -0.9924573302268982, -0.9823911190032959], "name" : "NORMAL"}, {"bufferView" : 3, "byteOffset" : 24, "componentType" : 5126, "count" : 1700, "type" : "VEC2", "max" : [0.9833329916000366, 0.5], "min" : [-0.10000000149011612, 0.05873602628707886], "name" : "TEXCOORD_0"}, {"bufferView" : 0, "byteOffset" : 30684, "componentType" : 5123, "count" : 2052, "type" : "SCALAR", "max" : [1169], "min" : [0]}, {"bufferView" : 4, "byteOffset" : 0, "componentType" : 5126, "count" : 1170, "type" : "VEC3", "max" : [61.53346633911133, 8.636697769165039, 7.000000096013537E-06], "min" : [31.41262435913086, -3.9487669467926025, -5.012968063354492], "name" : "POSITION"}, {"bufferView" : 4, "byteOffset" : 12, "componentType" : 5126, "count" : 1170, "type" : "VEC3", "max" : [1.0000044107437134, 1.0000044107437134, 1.0000044107437134], "min" : [-1.0000044107437134, -1.0000044107437134, -1.0000044107437134], "name" : "NORMAL"}, {"bufferView" : 4, "byteOffset" : 24, "componentType" : 5126, "count" : 1170, "type" : "VEC2", "max" : [0.4000000059604645, 0], "min" : [0.4000000059604645, 0], "name" : "TEXCOORD_0"}], "asset" : {"generator" : "Aspose.3D 21.5.1", "version" : "2.0"}, "buffers" : [{"uri" : "data:application/octet-stream;base64,", "byteLength" : 591416}], "bufferViews" : [{"buffer" : 0, "byteOffset" : 0, "byteLength" : 34788, "target" : 34963}, {"buffer" : 0, "byteOffset" : 34792, "byteLength" : 364224, "byteStride" : 32, "target" : 34962}, {"buffer" : 0, "byteOffset" : 399020, "byteLength" : 61440, "byteStride" : 32, "target" : 34962}, {"buffer" : 0, "byteOffset" : 460464, "byteLength" : 65280, "byteStride" : 32, "target" : 34962}, {"buffer" : 0, "byteOffset" : 525748, "byteLength" : 65664, "byteStride" : 32, "target" : 34962}], "images" : [{"uri" : "data:image/png;base64,"}], "materials" : [{"pbrMetallicRoughness" : {"baseColorFactor" : [1, 1, 1, 1], "baseColorTexture" : {"index" : 0, "texCoord" : 0}, "metallicFactor" : 0.4272727370262146, "roughnessFactor" : 1}, "emissiveFactor" : [0, 0, 0], "alphaMode" : "OPAQUE", "doubleSided" : true}, {"pbrMetallicRoughness" : {"baseColorFactor" : [0.800000011920929, 0.800000011920929, 0.800000011920929, 1], "metallicFactor" : 0, "roughnessFactor" : 0.5}, "emissiveFactor" : [0, 0, 0], "alphaMode" : "OPAQUE", "doubleSided" : true}, {"pbrMetallicRoughness" : {"baseColorFactor" : [0.800000011920929, 0.800000011920929, 0.800000011920929, 1], "metallicFactor" : 0, "roughnessFactor" : 0.5}, "emissiveFactor" : [0, 0, 0], "alphaMode" : "OPAQUE", "doubleSided" : true}, {"pbrMetallicRoughness" : {"baseColorFactor" : [0.800000011920929, 0.800000011920929, 0.800000011920929, 1], "metallicFactor" : 0, "roughnessFactor" : 0.5}, "emissiveFactor" : [0, 0, 0], "alphaMode" : "OPAQUE", "doubleSided" : true}], "meshes" : [{"primitives" : [{"attributes" : {"POSITION" : 1, "NORMAL" : 2, "TEXCOORD_0" : 3}, "indices" : 0, "material" : 0, "mode" : 4}]}, {"primitives" : [{"attributes" : {"POSITION" : 5, "NORMAL" : 6, "TEXCOORD_0" : 7}, "indices" : 4, "material" : 1, "mode" : 4}]}, {"primitives" : [{"attributes" : {"POSITION" : 9, "NORMAL" : 10, "TEXCOORD_0" : 11}, "indices" : 8, "material" : 2, "mode" : 4}]}, {"primitives" : [{"attributes" : {"POSITION" : 13, "NORMAL" : 14, "TEXCOORD_0" : 15}, "indices" : 12, "material" : 3, "mode" : 4}]}], "nodes" : [{"matrix" : [1, 0, 0, 0, 0, -1.3435885648505064E-07, 0.9999999657714511, 0, 0, -0.9999999657714511, -1.3435885648505064E-07, 0, 0, 0, 0, 1], "mesh" : 0, "name" : "8 sm tr after zb"}, {"matrix" : [0.6791900396347046, 0, 0, 0, 0, -9.125519706135513E-08, 0.6791900163870151, 0, 0, -0.6791900163870151, -9.125519706135513E-08, 0, 21.138687133789062, -0.615321159362793, 0, 1], "mesh" : 1, "name" : "GeoSphere07"}, {"matrix" : [0.6791900396347046, 0, 0, 0, 0, -9.125519706135513E-08, 0.6791900163870151, 0, 0, -0.6791900163870151, -9.125519706135513E-08, 0, 21.138687133789062, -0.615321159362793, 0, 1], "mesh" : 2, "name" : "Object03"}, {"matrix" : [1, 0, 0, 0, 0, -1.3435885648505064E-07, 0.9999999657714511, 0, 0, -0.9999999657714511, -1.3435885648505064E-07, 0, 0, -0.615321159362793, 0, 1], "mesh" : 3, "name" : "UTypeStair001"}], "samplers" : [{"magFilter" : 9729, "minFilter" : 9729, "wrapS" : 10497, "wrapT" : 10497}], "scene" : 0, "scenes" : [{"nodes" : [0, 1, 2, 3]}], "textures" : [{"sampler" : 0, "source" : 0}]}